<?xml version="1.0" encoding="UTF-8" standalone="no"?>
<!DOCTYPE svg PUBLIC "-//W3C//DTD SVG 1.1//EN"
 "http://www.w3.org/Graphics/SVG/1.1/DTD/svg11.dtd">
<!-- Generated by graphviz version 3.0.0 (0)
 -->
<!-- Pages: 1 -->
<svg width="613pt" height="260pt"
 viewBox="0.00 0.00 612.54 260.00" xmlns="http://www.w3.org/2000/svg" xmlns:xlink="http://www.w3.org/1999/xlink">
<g id="graph0" class="graph" transform="scale(1 1) rotate(0) translate(4 256)">
<polygon fill="white" stroke="transparent" points="-4,4 -4,-256 608.54,-256 608.54,4 -4,4"/>
<!-- 0 -->
<g id="node1" class="node">
<title>0</title>
<ellipse fill="none" stroke="black" cx="337.1" cy="-234" rx="52.79" ry="18"/>
<text text-anchor="middle" x="337.1" y="-230.3" font-family="Times,serif" font-size="14.00">backstaff</text>
</g>
<!-- 1 -->
<g id="node2" class="node">
<title>1</title>
<ellipse fill="none" stroke="black" cx="267.1" cy="-162" rx="52.79" ry="18"/>
<text text-anchor="middle" x="267.1" y="-158.3" font-family="Times,serif" font-size="14.00">snapshot</text>
</g>
<!-- 0&#45;&gt;1 -->
<g id="edge1" class="edge">
<title>0&#45;&gt;1</title>
<path fill="none" stroke="black" d="M320.86,-216.76C311.85,-207.75 300.48,-196.39 290.52,-186.43"/>
<polygon fill="black" stroke="black" points="292.79,-183.74 283.24,-179.15 287.84,-188.69 292.79,-183.74"/>
</g>
<!-- 6 -->
<g id="node7" class="node">
<title>6</title>
<ellipse fill="none" stroke="black" cx="407.1" cy="-162" rx="69.59" ry="18"/>
<text text-anchor="middle" x="407.1" y="-158.3" font-family="Times,serif" font-size="14.00">create_mesh</text>
</g>
<!-- 0&#45;&gt;6 -->
<g id="edge6" class="edge">
<title>0&#45;&gt;6</title>
<path fill="none" stroke="black" d="M353.33,-216.76C362.22,-207.88 373.39,-196.71 383.24,-186.85"/>
<polygon fill="black" stroke="black" points="385.87,-189.18 390.46,-179.63 380.92,-184.23 385.87,-189.18"/>
</g>
<!-- 2 -->
<g id="node3" class="node">
<title>2</title>
<ellipse fill="none" stroke="black" cx="35.1" cy="-18" rx="35.19" ry="18"/>
<text text-anchor="middle" x="35.1" y="-14.3" font-family="Times,serif" font-size="14.00">write</text>
</g>
<!-- 1&#45;&gt;2 -->
<g id="edge12" class="edge">
<title>1&#45;&gt;2</title>
<path fill="none" stroke="black" d="M214.82,-159.13C171.78,-154.97 111.62,-142.74 72.1,-108 53.99,-92.08 44.54,-65.88 39.74,-46.02"/>
<polygon fill="black" stroke="black" points="43.12,-45.06 37.58,-36.03 36.27,-46.54 43.12,-45.06"/>
</g>
<!-- 3 -->
<g id="node4" class="node">
<title>3</title>
<ellipse fill="none" stroke="black" cx="299.1" cy="-90" rx="36" ry="18"/>
<text text-anchor="middle" x="299.1" y="-86.3" font-family="Times,serif" font-size="14.00">corks</text>
</g>
<!-- 1&#45;&gt;3 -->
<g id="edge13" class="edge">
<title>1&#45;&gt;3</title>
<path fill="none" stroke="black" d="M274.84,-144.05C278.54,-135.97 283.04,-126.12 287.16,-117.11"/>
<polygon fill="black" stroke="black" points="290.45,-118.34 291.42,-107.79 284.08,-115.43 290.45,-118.34"/>
</g>
<!-- 4 -->
<g id="node5" class="node">
<title>4</title>
<ellipse fill="none" stroke="black" cx="132.1" cy="-18" rx="44.39" ry="18"/>
<text text-anchor="middle" x="132.1" y="-14.3" font-family="Times,serif" font-size="14.00">inspect</text>
</g>
<!-- 1&#45;&gt;4 -->
<g id="edge8" class="edge">
<title>1&#45;&gt;4</title>
<path fill="none" stroke="black" d="M251.61,-144.71C227.81,-119.67 182.11,-71.6 154.63,-42.71"/>
<polygon fill="black" stroke="black" points="156.83,-39.94 147.4,-35.1 151.76,-44.76 156.83,-39.94"/>
</g>
<!-- 7 -->
<g id="node8" class="node">
<title>7</title>
<ellipse fill="none" stroke="black" cx="385.1" cy="-90" rx="31.7" ry="18"/>
<text text-anchor="middle" x="385.1" y="-86.3" font-family="Times,serif" font-size="14.00">slice</text>
</g>
<!-- 1&#45;&gt;7 -->
<g id="edge9" class="edge">
<title>1&#45;&gt;7</title>
<path fill="none" stroke="black" d="M292.12,-146.15C310.46,-135.28 335.44,-120.46 354.89,-108.92"/>
<polygon fill="black" stroke="black" points="356.85,-111.82 363.67,-103.71 353.28,-105.8 356.85,-111.82"/>
</g>
<!-- 8 -->
<g id="node9" class="node">
<title>8</title>
<ellipse fill="none" stroke="black" cx="125.1" cy="-90" rx="44.39" ry="18"/>
<text text-anchor="middle" x="125.1" y="-86.3" font-family="Times,serif" font-size="14.00">extract</text>
</g>
<!-- 1&#45;&gt;8 -->
<g id="edge10" class="edge">
<title>1&#45;&gt;8</title>
<path fill="none" stroke="black" d="M238.36,-146.83C216.18,-135.9 185.35,-120.7 161.46,-108.92"/>
<polygon fill="black" stroke="black" points="162.86,-105.71 152.34,-104.43 159.77,-111.99 162.86,-105.71"/>
</g>
<!-- 9 -->
<g id="node10" class="node">
<title>9</title>
<ellipse fill="none" stroke="black" cx="248.1" cy="-18" rx="53.89" ry="18"/>
<text text-anchor="middle" x="248.1" y="-14.3" font-family="Times,serif" font-size="14.00">resample</text>
</g>
<!-- 1&#45;&gt;9 -->
<g id="edge11" class="edge">
<title>1&#45;&gt;9</title>
<path fill="none" stroke="black" d="M262.12,-143.97C259.31,-133.65 255.99,-120.17 254.1,-108 250.91,-87.47 249.42,-64.02 248.72,-46.34"/>
<polygon fill="black" stroke="black" points="252.21,-46.04 248.37,-36.16 245.21,-46.27 252.21,-46.04"/>
</g>
<!-- 10 -->
<g id="node11" class="node">
<title>10</title>
<ellipse fill="none" stroke="black" cx="476.1" cy="-90" rx="41.69" ry="18"/>
<text text-anchor="middle" x="476.1" y="-86.3" font-family="Times,serif" font-size="14.00">ebeam</text>
</g>
<!-- 1&#45;&gt;10 -->
<g id="edge14" class="edge">
<title>1&#45;&gt;10</title>
<path fill="none" stroke="black" d="M303.43,-148.96C335.67,-138.26 384.04,-122.16 426.1,-108 428.96,-107.04 431.91,-106.04 434.89,-105.03"/>
<polygon fill="black" stroke="black" points="436.02,-108.35 444.37,-101.82 433.77,-101.72 436.02,-108.35"/>
</g>
<!-- 11 -->
<g id="node12" class="node">
<title>11</title>
<ellipse fill="none" stroke="black" cx="570.1" cy="-90" rx="34.39" ry="18"/>
<text text-anchor="middle" x="570.1" y="-86.3" font-family="Times,serif" font-size="14.00">trace</text>
</g>
<!-- 1&#45;&gt;11 -->
<g id="edge7" class="edge">
<title>1&#45;&gt;11</title>
<path fill="none" stroke="black" d="M305.68,-149.66C313.09,-147.65 320.81,-145.67 328.1,-144 415.7,-123.91 440.66,-132.64 527.1,-108 529.69,-107.26 532.33,-106.43 534.98,-105.53"/>
<polygon fill="black" stroke="black" points="536.25,-108.79 544.46,-102.09 533.87,-102.21 536.25,-108.79"/>
</g>
<!-- 5 -->
<g id="node6" class="node">
<title>5</title>
<ellipse fill="none" stroke="black" cx="476.1" cy="-18" rx="50.89" ry="18"/>
<text text-anchor="middle" x="476.1" y="-14.3" font-family="Times,serif" font-size="14.00">simulate</text>
</g>
<!-- 8&#45;&gt;2 -->
<g id="edge3" class="edge">
<title>8&#45;&gt;2</title>
<path fill="none" stroke="black" d="M105.57,-73.81C92.69,-63.79 75.66,-50.55 61.57,-39.59"/>
<polygon fill="black" stroke="black" points="63.71,-36.82 53.66,-33.44 59.41,-42.34 63.71,-36.82"/>
</g>
<!-- 8&#45;&gt;4 -->
<g id="edge4" class="edge">
<title>8&#45;&gt;4</title>
<path fill="none" stroke="black" d="M126.83,-71.7C127.6,-63.98 128.53,-54.71 129.39,-46.11"/>
<polygon fill="black" stroke="black" points="132.87,-46.4 130.39,-36.1 125.91,-45.71 132.87,-46.4"/>
</g>
<!-- 8&#45;&gt;9 -->
<g id="edge2" class="edge">
<title>8&#45;&gt;9</title>
<path fill="none" stroke="black" d="M149.69,-75C167.81,-64.69 192.71,-50.52 212.92,-39.02"/>
<polygon fill="black" stroke="black" points="214.88,-41.93 221.84,-33.94 211.42,-35.85 214.88,-41.93"/>
</g>
<!-- 10&#45;&gt;5 -->
<g id="edge5" class="edge">
<title>10&#45;&gt;5</title>
<path fill="none" stroke="black" d="M476.1,-71.7C476.1,-63.98 476.1,-54.71 476.1,-46.11"/>
<polygon fill="black" stroke="black" points="479.6,-46.1 476.1,-36.1 472.6,-46.1 479.6,-46.1"/>
</g>
</g>
</svg>
