<?xml version="1.0" encoding="UTF-8" standalone="no"?>
<!DOCTYPE svg PUBLIC "-//W3C//DTD SVG 1.1//EN"
 "http://www.w3.org/Graphics/SVG/1.1/DTD/svg11.dtd">
<!-- Generated by graphviz version 3.0.0 (20220226.1711)
 -->
<!-- Pages: 1 -->
<svg width="991pt" height="404pt"
 viewBox="0.00 0.00 991.49 404.00" xmlns="http://www.w3.org/2000/svg" xmlns:xlink="http://www.w3.org/1999/xlink">
<g id="graph0" class="graph" transform="scale(1 1) rotate(0) translate(4 400)">
<polygon fill="white" stroke="transparent" points="-4,4 -4,-400 987.49,-400 987.49,4 -4,4"/>
<!-- 0 -->
<g id="node1" class="node">
<title>0</title>
<ellipse fill="none" stroke="black" cx="619.95" cy="-378" rx="42.79" ry="18"/>
<text text-anchor="middle" x="619.95" y="-374.3" font-family="Times,serif" font-size="14.00">backstaff</text>
</g>
<!-- 1 -->
<g id="node2" class="node">
<title>1</title>
<ellipse fill="none" stroke="black" cx="474.95" cy="-306" rx="41.69" ry="18"/>
<text text-anchor="middle" x="474.95" y="-302.3" font-family="Times,serif" font-size="14.00">snapshot</text>
</g>
<!-- 0&#45;&gt;1 -->
<g id="edge1" class="edge">
<title>0&#45;&gt;1</title>
<path fill="none" stroke="black" d="M592.67,-363.83C569.54,-352.67 536.18,-336.56 510.87,-324.34"/>
<polygon fill="black" stroke="black" points="512.13,-321.07 501.61,-319.87 509.09,-327.37 512.13,-321.07"/>
</g>
<!-- 11 -->
<g id="node12" class="node">
<title>11</title>
<ellipse fill="none" stroke="black" cx="764.95" cy="-306" rx="55.49" ry="18"/>
<text text-anchor="middle" x="764.95" y="-302.3" font-family="Times,serif" font-size="14.00">create_mesh</text>
</g>
<!-- 0&#45;&gt;11 -->
<g id="edge11" class="edge">
<title>0&#45;&gt;11</title>
<path fill="none" stroke="black" d="M647.22,-363.83C669.48,-353.09 701.21,-337.77 726.12,-325.74"/>
<polygon fill="black" stroke="black" points="727.82,-328.81 735.3,-321.31 724.77,-322.51 727.82,-328.81"/>
</g>
<!-- 4 -->
<g id="node5" class="node">
<title>4</title>
<ellipse fill="none" stroke="black" cx="202.95" cy="-234" rx="36" ry="18"/>
<text text-anchor="middle" x="202.95" y="-230.3" font-family="Times,serif" font-size="14.00">inspect</text>
</g>
<!-- 1&#45;&gt;4 -->
<g id="edge24" class="edge">
<title>1&#45;&gt;4</title>
<path fill="none" stroke="black" d="M437.59,-297.85C392.27,-288.82 313.77,-272.02 247.95,-252 245.34,-251.21 242.67,-250.34 239.98,-249.43"/>
<polygon fill="black" stroke="black" points="240.95,-246.06 230.35,-246.01 238.61,-252.66 240.95,-246.06"/>
</g>
<!-- 6 -->
<g id="node7" class="node">
<title>6</title>
<ellipse fill="none" stroke="black" cx="284.95" cy="-234" rx="27.9" ry="18"/>
<text text-anchor="middle" x="284.95" y="-230.3" font-family="Times,serif" font-size="14.00">trace</text>
</g>
<!-- 1&#45;&gt;6 -->
<g id="edge19" class="edge">
<title>1&#45;&gt;6</title>
<path fill="none" stroke="black" d="M442.37,-294.73C411.16,-284.66 362.9,-268.46 321.95,-252 320.08,-251.25 318.16,-250.45 316.24,-249.64"/>
<polygon fill="black" stroke="black" points="317.27,-246.26 306.7,-245.42 314.44,-252.66 317.27,-246.26"/>
</g>
<!-- 7 -->
<g id="node8" class="node">
<title>7</title>
<ellipse fill="none" stroke="black" cx="357.95" cy="-234" rx="27" ry="18"/>
<text text-anchor="middle" x="357.95" y="-230.3" font-family="Times,serif" font-size="14.00">slice</text>
</g>
<!-- 1&#45;&gt;7 -->
<g id="edge4" class="edge">
<title>1&#45;&gt;7</title>
<path fill="none" stroke="black" d="M451.55,-291C432.7,-279.72 406.13,-263.83 386.11,-251.85"/>
<polygon fill="black" stroke="black" points="387.8,-248.78 377.42,-246.65 384.21,-254.79 387.8,-248.78"/>
</g>
<!-- 8 -->
<g id="node9" class="node">
<title>8</title>
<ellipse fill="none" stroke="black" cx="474.95" cy="-234" rx="34.39" ry="18"/>
<text text-anchor="middle" x="474.95" y="-230.3" font-family="Times,serif" font-size="14.00">extract</text>
</g>
<!-- 1&#45;&gt;8 -->
<g id="edge6" class="edge">
<title>1&#45;&gt;8</title>
<path fill="none" stroke="black" d="M474.95,-287.7C474.95,-279.98 474.95,-270.71 474.95,-262.11"/>
<polygon fill="black" stroke="black" points="478.45,-262.1 474.95,-252.1 471.45,-262.1 478.45,-262.1"/>
</g>
<!-- 9 -->
<g id="node10" class="node">
<title>9</title>
<ellipse fill="none" stroke="black" cx="362.95" cy="-162" rx="42.79" ry="18"/>
<text text-anchor="middle" x="362.95" y="-158.3" font-family="Times,serif" font-size="14.00">resample</text>
</g>
<!-- 1&#45;&gt;9 -->
<g id="edge7" class="edge">
<title>1&#45;&gt;9</title>
<path fill="none" stroke="black" d="M461.68,-288.84C453.13,-278.38 441.81,-264.44 431.95,-252 414.82,-230.41 395.64,-205.62 381.86,-187.69"/>
<polygon fill="black" stroke="black" points="384.42,-185.29 375.55,-179.49 378.87,-189.55 384.42,-185.29"/>
</g>
<!-- 12 -->
<g id="node13" class="node">
<title>12</title>
<ellipse fill="none" stroke="black" cx="368.95" cy="-18" rx="28.7" ry="18"/>
<text text-anchor="middle" x="368.95" y="-14.3" font-family="Times,serif" font-size="14.00">write</text>
</g>
<!-- 1&#45;&gt;12 -->
<g id="edge8" class="edge">
<title>1&#45;&gt;12</title>
<path fill="none" stroke="black" d="M492.64,-289.22C502.13,-279.54 512.88,-266.29 517.95,-252 534.62,-204.99 543.55,-127.67 500.95,-72 478.49,-42.66 437.21,-29.52 406.77,-23.65"/>
<polygon fill="black" stroke="black" points="407.36,-20.2 396.9,-21.93 406.15,-27.1 407.36,-20.2"/>
</g>
<!-- 14 -->
<g id="node15" class="node">
<title>14</title>
<ellipse fill="none" stroke="black" cx="598.95" cy="-234" rx="34.39" ry="18"/>
<text text-anchor="middle" x="598.95" y="-230.3" font-family="Times,serif" font-size="14.00">ebeam</text>
</g>
<!-- 1&#45;&gt;14 -->
<g id="edge22" class="edge">
<title>1&#45;&gt;14</title>
<path fill="none" stroke="black" d="M499.15,-291.34C518.67,-280.32 546.28,-264.73 567.51,-252.74"/>
<polygon fill="black" stroke="black" points="569.49,-255.65 576.47,-247.69 566.04,-249.55 569.49,-255.65"/>
</g>
<!-- 18 -->
<g id="node19" class="node">
<title>18</title>
<ellipse fill="none" stroke="black" cx="680.95" cy="-234" rx="29.8" ry="18"/>
<text text-anchor="middle" x="680.95" y="-230.3" font-family="Times,serif" font-size="14.00">corks</text>
</g>
<!-- 1&#45;&gt;18 -->
<g id="edge9" class="edge">
<title>1&#45;&gt;18</title>
<path fill="none" stroke="black" d="M508.88,-295.35C542.87,-285.43 596.52,-269.05 641.95,-252 644.02,-251.22 646.15,-250.39 648.29,-249.53"/>
<polygon fill="black" stroke="black" points="649.71,-252.73 657.6,-245.65 647.02,-246.27 649.71,-252.73"/>
</g>
<!-- 2 -->
<g id="node3" class="node">
<title>2</title>
<ellipse fill="none" stroke="black" cx="605.95" cy="-162" rx="40.89" ry="18"/>
<text text-anchor="middle" x="605.95" y="-158.3" font-family="Times,serif" font-size="14.00">simulate</text>
</g>
<!-- 3 -->
<g id="node4" class="node">
<title>3</title>
<ellipse fill="none" stroke="black" cx="764.95" cy="-234" rx="36" ry="18"/>
<text text-anchor="middle" x="764.95" y="-230.3" font-family="Times,serif" font-size="14.00">regular</text>
</g>
<!-- 5 -->
<g id="node6" class="node">
<title>5</title>
<ellipse fill="none" stroke="black" cx="202.95" cy="-162" rx="40.89" ry="18"/>
<text text-anchor="middle" x="202.95" y="-158.3" font-family="Times,serif" font-size="14.00">statistics</text>
</g>
<!-- 4&#45;&gt;5 -->
<g id="edge5" class="edge">
<title>4&#45;&gt;5</title>
<path fill="none" stroke="black" d="M202.95,-215.7C202.95,-207.98 202.95,-198.71 202.95,-190.11"/>
<polygon fill="black" stroke="black" points="206.45,-190.1 202.95,-180.1 199.45,-190.1 206.45,-190.1"/>
</g>
<!-- 8&#45;&gt;9 -->
<g id="edge16" class="edge">
<title>8&#45;&gt;9</title>
<path fill="none" stroke="black" d="M453.62,-219.67C436.96,-209.26 413.56,-194.63 394.7,-182.85"/>
<polygon fill="black" stroke="black" points="396.46,-179.82 386.13,-177.49 392.75,-185.76 396.46,-179.82"/>
</g>
<!-- 8&#45;&gt;12 -->
<g id="edge17" class="edge">
<title>8&#45;&gt;12</title>
<path fill="none" stroke="black" d="M481.26,-215.87C491.63,-184.56 508.44,-117.18 479.95,-72 463.85,-46.49 431.73,-32.99 406.16,-26.02"/>
<polygon fill="black" stroke="black" points="406.93,-22.61 396.38,-23.58 405.23,-29.4 406.93,-22.61"/>
</g>
<!-- 10 -->
<g id="node11" class="node">
<title>10</title>
<ellipse fill="none" stroke="black" cx="53.95" cy="-90" rx="53.89" ry="18"/>
<text text-anchor="middle" x="53.95" y="-86.3" font-family="Times,serif" font-size="14.00">regular_grid</text>
</g>
<!-- 9&#45;&gt;10 -->
<g id="edge12" class="edge">
<title>9&#45;&gt;10</title>
<path fill="none" stroke="black" d="M324.88,-153.43C276.42,-143.65 190.19,-125.76 116.95,-108 112.8,-106.99 108.5,-105.92 104.2,-104.81"/>
<polygon fill="black" stroke="black" points="104.76,-101.34 94.2,-102.19 102.98,-108.11 104.76,-101.34"/>
</g>
<!-- 15 -->
<g id="node16" class="node">
<title>15</title>
<ellipse fill="none" stroke="black" cx="185.95" cy="-90" rx="60.39" ry="18"/>
<text text-anchor="middle" x="185.95" y="-86.3" font-family="Times,serif" font-size="14.00">reshaped_grid</text>
</g>
<!-- 9&#45;&gt;15 -->
<g id="edge14" class="edge">
<title>9&#45;&gt;15</title>
<path fill="none" stroke="black" d="M332.92,-149.13C304.76,-137.99 262.31,-121.2 230.26,-108.53"/>
<polygon fill="black" stroke="black" points="231.27,-105.16 220.68,-104.74 228.69,-111.67 231.27,-105.16"/>
</g>
<!-- 16 -->
<g id="node17" class="node">
<title>16</title>
<ellipse fill="none" stroke="black" cx="312.95" cy="-90" rx="48.19" ry="18"/>
<text text-anchor="middle" x="312.95" y="-86.3" font-family="Times,serif" font-size="14.00">same_grid</text>
</g>
<!-- 9&#45;&gt;16 -->
<g id="edge21" class="edge">
<title>9&#45;&gt;16</title>
<path fill="none" stroke="black" d="M351.1,-144.41C344.99,-135.87 337.43,-125.28 330.65,-115.79"/>
<polygon fill="black" stroke="black" points="333.37,-113.57 324.71,-107.47 327.67,-117.64 333.37,-113.57"/>
</g>
<!-- 17 -->
<g id="node18" class="node">
<title>17</title>
<ellipse fill="none" stroke="black" cx="424.95" cy="-90" rx="46.29" ry="18"/>
<text text-anchor="middle" x="424.95" y="-86.3" font-family="Times,serif" font-size="14.00">mesh_file</text>
</g>
<!-- 9&#45;&gt;17 -->
<g id="edge3" class="edge">
<title>9&#45;&gt;17</title>
<path fill="none" stroke="black" d="M377.33,-144.76C385.23,-135.84 395.18,-124.61 403.94,-114.72"/>
<polygon fill="black" stroke="black" points="406.63,-116.95 410.64,-107.15 401.39,-112.31 406.63,-116.95"/>
</g>
<!-- 10&#45;&gt;12 -->
<g id="edge13" class="edge">
<title>10&#45;&gt;12</title>
<path fill="none" stroke="black" d="M93.85,-77.87C101.5,-75.84 109.45,-73.8 116.95,-72 193.05,-53.75 282.9,-35.67 332.12,-26.07"/>
<polygon fill="black" stroke="black" points="332.83,-29.5 341.98,-24.15 331.5,-22.63 332.83,-29.5"/>
</g>
<!-- 11&#45;&gt;3 -->
<g id="edge15" class="edge">
<title>11&#45;&gt;3</title>
<path fill="none" stroke="black" d="M764.95,-287.7C764.95,-279.98 764.95,-270.71 764.95,-262.11"/>
<polygon fill="black" stroke="black" points="768.45,-262.1 764.95,-252.1 761.45,-262.1 768.45,-262.1"/>
</g>
<!-- 13 -->
<g id="node14" class="node">
<title>13</title>
<ellipse fill="none" stroke="black" cx="900.95" cy="-234" rx="82.59" ry="18"/>
<text text-anchor="middle" x="900.95" y="-230.3" font-family="Times,serif" font-size="14.00">horizontally_regular</text>
</g>
<!-- 11&#45;&gt;13 -->
<g id="edge18" class="edge">
<title>11&#45;&gt;13</title>
<path fill="none" stroke="black" d="M793.12,-290.5C812.73,-280.4 839.16,-266.8 860.94,-255.59"/>
<polygon fill="black" stroke="black" points="862.67,-258.64 869.96,-250.95 859.46,-252.41 862.67,-258.64"/>
</g>
<!-- 14&#45;&gt;2 -->
<g id="edge23" class="edge">
<title>14&#45;&gt;2</title>
<path fill="none" stroke="black" d="M600.68,-215.7C601.45,-207.98 602.37,-198.71 603.23,-190.11"/>
<polygon fill="black" stroke="black" points="606.72,-190.4 604.23,-180.1 599.76,-189.71 606.72,-190.4"/>
</g>
<!-- 15&#45;&gt;12 -->
<g id="edge20" class="edge">
<title>15&#45;&gt;12</title>
<path fill="none" stroke="black" d="M221.66,-75.34C254.66,-62.72 303.3,-44.11 335.53,-31.78"/>
<polygon fill="black" stroke="black" points="336.89,-35.01 344.98,-28.17 334.39,-28.47 336.89,-35.01"/>
</g>
<!-- 16&#45;&gt;12 -->
<g id="edge2" class="edge">
<title>16&#45;&gt;12</title>
<path fill="none" stroke="black" d="M326.22,-72.41C333.39,-63.44 342.37,-52.21 350.25,-42.37"/>
<polygon fill="black" stroke="black" points="353.02,-44.51 356.54,-34.51 347.56,-40.13 353.02,-44.51"/>
</g>
<!-- 17&#45;&gt;12 -->
<g id="edge10" class="edge">
<title>17&#45;&gt;12</title>
<path fill="none" stroke="black" d="M411.67,-72.41C404.5,-63.44 395.52,-52.21 387.64,-42.37"/>
<polygon fill="black" stroke="black" points="390.33,-40.13 381.35,-34.51 384.87,-44.51 390.33,-40.13"/>
</g>
</g>
</svg>
